<?xml version="1.0" encoding="utf-8"?>
<!-- Generator: Adobe Illustrator 16.0.0, SVG Export Plug-In . SVG Version: 6.00 Build 0)  -->
<!DOCTYPE svg PUBLIC "-//W3C//DTD SVG 1.1//EN" "http://www.w3.org/Graphics/SVG/1.1/DTD/svg11.dtd">
<svg version="1.1" id="Layer_1" xmlns="http://www.w3.org/2000/svg" xmlns:xlink="http://www.w3.org/1999/xlink" x="0px" y="0px"
	 width="221px" height="38px" viewBox="0 0 221 38" enable-background="new 0 0 221 38" xml:space="preserve">
<g>
	<rect y="4.519" fill="none" width="219.695" height="29.792"/>
	<path fill="#FFFFFF" d="M2.822,4.521h5.111c3.24,0,3.996,0.972,3.996,4.319v18.79c0,4.031-1.044,5.256-3.996,5.256H2.822V4.521z
		 M7.934,30.077c0.864,0,1.044-0.468,1.044-2.447V8.589c0-0.9-0.18-1.26-1.044-1.26h-2.16v22.748H7.934z"/>
	<path fill="#FFFFFF" d="M15.17,29.068V8.301c0-2.771,0.828-3.779,3.456-3.779h3.491V7.33h-3.312c-0.54,0-0.684,0.288-0.684,0.972
		v9.323h3.995v2.809h-3.995v8.637c0,0.828,0.18,1.009,0.54,1.009h3.492v2.81h-3.492C16.034,32.886,15.17,31.878,15.17,29.068z"/>
	<path fill="#FFFFFF" d="M24.962,29.466v-7.127h2.952v7.127c0,0.828,0.108,0.974,0.648,0.974h1.224c0.54,0,0.612-0.146,0.612-1.008
		V22.88c0-1.045-0.54-1.512-1.044-1.944l-2.375-1.691c-1.26-0.936-2.16-2.088-2.16-4.176V7.941c0-2.771,0.828-3.78,3.456-3.78h1.332
		c2.628,0,3.456,1.008,3.456,3.78v7.055h-2.951V7.941c0-0.756-0.108-0.972-0.648-0.972h-1.008c-0.576,0-0.684,0.18-0.684,0.972
		v7.019c0,1.008,0.36,1.548,0.936,1.944l2.448,1.764c1.152,0.864,2.196,1.98,2.196,4.104v6.66c0,2.807-0.864,3.813-3.491,3.813
		h-1.512C25.826,33.245,24.962,32.273,24.962,29.466z"/>
	<path fill="#FFFFFF" d="M39.289,32.886h-2.952V4.521h2.952V32.886z"/>
	<path fill="#FFFFFF" d="M46.74,32.886c-3.456,0-4.139-1.26-4.139-4.067V7.977c0-2.448,0.648-3.816,3.887-3.816h1.044
		c3.24,0,3.888,1.368,3.888,3.816v7.847h-2.952V7.977c0-0.648-0.144-1.008-0.936-1.008h-1.044c-0.792,0-0.936,0.36-0.936,1.008
		v20.839c0,0.865,0.18,1.261,1.188,1.261h1.728v-7.953h-1.476v-2.809h4.428v13.57L46.74,32.886L46.74,32.886z"/>
	<path fill="#FFFFFF" d="M54.732,32.886V4.521h4.319c3.492,0,4.68,0.756,4.68,4.679v23.685h-2.952V9.201
		c0-1.548-0.396-1.872-1.728-1.872h-1.368v25.557H54.732z"/>
	<path fill="#FFFFFF" d="M72.804,29.286V4.521h2.952v24.765c0,0.791,0.18,1.151,0.864,1.151h1.835V4.521h2.952v25.917h1.8
		c0.792,0,0.9-0.432,0.9-1.08V4.521h2.952v24.836c0,2.521-0.756,3.888-3.852,3.888H76.62C74.136,33.245,72.804,32.382,72.804,29.286
		z"/>
	<path fill="#FFFFFF" d="M90.336,29.068V8.301c0-2.771,0.828-3.779,3.456-3.779h3.491V7.33h-3.312c-0.54,0-0.684,0.288-0.684,0.972
		v9.323h3.995v2.809h-3.995v8.637c0,0.828,0.18,1.009,0.54,1.009h3.492v2.81h-3.492C91.2,32.886,90.336,31.878,90.336,29.068z"/>
	<path fill="#FFFFFF" d="M100.128,29.068V8.301c0-2.771,0.828-3.779,3.455-3.779h3.492V7.33h-3.312c-0.54,0-0.685,0.288-0.685,0.972
		v9.323h3.996v2.809h-3.996v8.637c0,0.828,0.181,1.009,0.54,1.009h3.492v2.81h-3.492C100.992,32.886,100.128,31.878,100.128,29.068z
		"/>
	<path fill="#FFFFFF" d="M109.991,32.886V4.521h2.952v14.074h0.574l2.16-14.074h3.023l-2.23,14.398
		c1.295,0.468,2.016,1.656,2.016,3.923v10.043h-2.952V22.843c0-0.971-0.287-1.438-1.115-1.438h-1.476v11.481H109.991z"/>
	<path fill="#FFFFFF" d="M127.127,4.521h5.146c2.771,0,3.672,1.008,3.672,3.995V20.72c0,2.986-1.008,4.212-4.066,4.212h-1.8v7.954
		h-2.952V4.521z M131.879,22.124c0.936,0,1.115-0.36,1.115-1.404V8.301c0-0.684-0.217-0.972-0.721-0.972h-2.194v14.795H131.879z"/>
	<path fill="#FFFFFF" d="M144.369,33.245h-1.549c-2.95,0-3.814-1.08-3.814-4.246V7.941c0-2.664,0.721-3.78,3.637-3.78h1.764
		c2.808,0,3.636,0.936,3.636,4.068v20.876C148.041,32.165,147.143,33.245,144.369,33.245z M144.369,30.438
		c0.828,0,0.721-0.647,0.721-1.332V7.977c0-0.756-0.107-1.008-0.686-1.008h-1.728c-0.54,0-0.72,0.216-0.72,1.008v21.022
		c0,0.791-0.072,1.438,0.863,1.438H144.369z"/>
	<path fill="#FFFFFF" d="M154.307,32.886h-2.951V4.521h5.146c2.771,0,3.672,1.008,3.672,3.995v11.123
		c0,1.981-0.433,3.168-1.619,3.78l2.23,9.467h-3.061l-2.123-9.034h-1.295V32.886L154.307,32.886z M156.105,21.044
		c0.973,0,1.115-0.504,1.115-1.405V8.301c0-0.756-0.144-0.972-0.72-0.972h-2.194v13.715H156.105z"/>
	<path fill="#FFFFFF" d="M165.143,7.329h-3.526V4.521h10.007v2.808h-3.527v25.557h-2.951V7.329H165.143z"/>
	<path fill="#FFFFFF" d="M173.312,4.521h2.953v25.556h4.534v2.809h-7.487V4.521z"/>
	<path fill="#FFFFFF" d="M189.188,24.318h-3.131v8.459h-2.951V7.941c0-2.664,0.72-3.78,3.636-3.78h1.764
		c2.808,0,3.636,0.936,3.636,4.068v24.657h-2.951v-8.567H189.188z M189.188,21.511V7.977c0-0.684-0.18-1.008-0.684-1.008h-1.764
		c-0.54,0-0.684,0.288-0.684,0.972v13.57H189.188z"/>
	<path fill="#FFFFFF" d="M195.488,32.886V4.521h4.32c3.491,0,4.68,0.756,4.68,4.679v23.685h-2.952V9.201
		c0-1.548-0.396-1.872-1.728-1.872h-1.367v25.557H195.488z"/>
	<path fill="#FFFFFF" d="M207.836,4.521h5.111c3.238,0,3.996,0.972,3.996,4.319v18.79c0,4.031-1.045,5.256-3.996,5.256h-5.111V4.521
		z M212.947,30.077c0.863,0,1.044-0.468,1.044-2.447V8.589c0-0.9-0.181-1.26-1.044-1.26h-2.159v22.748H212.947z"/>
</g>
</svg>
